<?xml version="1.0" standalone="no"?><!DOCTYPE svg PUBLIC "-//W3C//DTD SVG 1.1//EN" "http://www.w3.org/Graphics/SVG/1.1/DTD/svg11.dtd"><svg xmlns:xlink="http://www.w3.org/1999/xlink" version="1.1" class="highcharts-root" xmlns="http://www.w3.org/2000/svg" width="600" height="600" viewBox="0 0 600 600" style="block-size:600px;border:0px none rgb(204, 204, 204);border-block:0px none rgb(204, 204, 204);border-block-color:rgb(204, 204, 204);border-block-end:0px none rgb(204, 204, 204);border-block-end-color:rgb(204, 204, 204);border-block-start:0px none rgb(204, 204, 204);border-block-start-color:rgb(204, 204, 204);border-bottom:0px none rgb(204, 204, 204);border-bottom-color:rgb(204, 204, 204);border-color:rgb(204, 204, 204);border-inline:0px none rgb(204, 204, 204);border-inline-color:rgb(204, 204, 204);border-inline-end:0px none rgb(204, 204, 204);border-inline-end-color:rgb(204, 204, 204);border-inline-start:0px none rgb(204, 204, 204);border-inline-start-color:rgb(204, 204, 204);border-left:0px none rgb(204, 204, 204);border-left-color:rgb(204, 204, 204);border-right:0px none rgb(204, 204, 204);border-right-color:rgb(204, 204, 204);border-top:0px none rgb(204, 204, 204);border-top-color:rgb(204, 204, 204);box-sizing:border-box;caret-color:rgb(204, 204, 204);color:rgb(204, 204, 204);column-rule:0px none rgb(204, 204, 204);column-rule-color:rgb(204, 204, 204);display:block;font-family:-apple-system, BlinkMacSystemFont, &quot;Segoe UI&quot;, Roboto, Helvetica, Arial, sans-serif, &quot;Apple Color Emoji&quot;, &quot;Segoe UI Emoji&quot;, &quot;Segoe UI Symbol&quot;;font-size:13px;inline-size:600px;line-height:18.525px;outline:rgb(204, 204, 204) none 0px;outline-color:rgb(204, 204, 204);text-align:left;text-decoration:none solid rgb(204, 204, 204);text-decoration-color:rgb(204, 204, 204);text-size-adjust:100%;transform-origin:300px 300px;vertical-align:middle;webkit-border-after:0px none rgb(204, 204, 204);webkit-border-after-color:rgb(204, 204, 204);webkit-border-before:0px none rgb(204, 204, 204);webkit-border-before-color:rgb(204, 204, 204);webkit-border-end:0px none rgb(204, 204, 204);webkit-border-end-color:rgb(204, 204, 204);webkit-border-start:0px none rgb(204, 204, 204);webkit-border-start-color:rgb(204, 204, 204);webkit-box-sizing:border-box;webkit-column-rule:0px none rgb(204, 204, 204);webkit-column-rule-color:rgb(204, 204, 204);webkit-locale:&quot;en&quot;;webkit-perspective-origin:300px 300px;webkit-text-emphasis-color:rgb(204, 204, 204);webkit-text-fill-color:rgb(204, 204, 204);webkit-text-size-adjust:100%;webkit-text-stroke-color:rgb(204, 204, 204);webkit-transform-origin:300px 300px;" stroke-width="1px"><desc>Created with Highcharts 8.1.0</desc><defs><clipPath id="highcharts-spxrbpf-888-"><rect x="0" y="0" width="580" height="477"></rect></clipPath></defs><rect class="highcharts-background" x="0.5px" y="0.5px" width="598" height="598" rx="0" ry="0" fill="rgb(37, 37, 37)" style="block-size:598px;inline-size:598px;rx:0px;ry:0px;"></rect><rect class="highcharts-plot-background" x="10px" y="84px" width="580" height="477" fill="none" style="block-size:477px;inline-size:580px;"></rect><g class="highcharts-grid highcharts-xaxis-grid" data-z-index="1"><path data-z-index="1" class="highcharts-grid-line" d="M 88.5 84 L 88.5 561" opacity="1" fill="none" stroke="rgb(230, 230, 230)" stroke-width="0px"></path><path data-z-index="1" class="highcharts-grid-line" d="M 208.5 84 L 208.5 561" opacity="1" fill="none" stroke="rgb(230, 230, 230)" stroke-width="0px"></path><path data-z-index="1" class="highcharts-grid-line" d="M 281.5 84 L 281.5 561" opacity="1" fill="none" stroke="rgb(230, 230, 230)" stroke-width="0px"></path><path data-z-index="1" class="highcharts-grid-line" d="M 353.5 84 L 353.5 561" opacity="1" fill="none" stroke="rgb(230, 230, 230)" stroke-width="0px"></path><path data-z-index="1" class="highcharts-grid-line" d="M 426.5 84 L 426.5 561" opacity="1" fill="none" stroke="rgb(230, 230, 230)" stroke-width="0px"></path><path data-z-index="1" class="highcharts-grid-line" d="M 498.5 84 L 498.5 561" opacity="1" fill="none" stroke="rgb(230, 230, 230)" stroke-width="0px"></path><path data-z-index="1" class="highcharts-grid-line" d="M 571.5 84 L 571.5 561" opacity="1" fill="none" stroke="rgb(230, 230, 230)" stroke-width="0px"></path></g><g class="highcharts-grid highcharts-yaxis-grid" data-z-index="1"><path data-z-index="1" class="highcharts-grid-line" d="M 10 561.5 L 590 561.5" opacity="1" fill="none" stroke="rgb(230, 230, 230)"></path><path data-z-index="1" class="highcharts-grid-line" d="M 10 513.5 L 590 513.5" opacity="1" fill="none" stroke="rgb(230, 230, 230)"></path><path data-z-index="1" class="highcharts-grid-line" d="M 10 466.5 L 590 466.5" opacity="1" fill="none" stroke="rgb(230, 230, 230)"></path><path data-z-index="1" class="highcharts-grid-line" d="M 10 418.5 L 590 418.5" opacity="1" fill="none" stroke="rgb(230, 230, 230)"></path><path data-z-index="1" class="highcharts-grid-line" d="M 10 370.5 L 590 370.5" opacity="1" fill="none" stroke="rgb(230, 230, 230)"></path><path data-z-index="1" class="highcharts-grid-line" d="M 10 323.5 L 590 323.5" opacity="1" fill="none" stroke="rgb(230, 230, 230)"></path><path data-z-index="1" class="highcharts-grid-line" d="M 10 275.5 L 590 275.5" opacity="1" fill="none" stroke="rgb(230, 230, 230)"></path><path data-z-index="1" class="highcharts-grid-line" d="M 10 227.5 L 590 227.5" opacity="1" fill="none" stroke="rgb(230, 230, 230)"></path><path data-z-index="1" class="highcharts-grid-line" d="M 10 179.5 L 590 179.5" opacity="1" fill="none" stroke="rgb(230, 230, 230)"></path><path data-z-index="1" class="highcharts-grid-line" d="M 10 132.5 L 590 132.5" opacity="1" fill="none" stroke="rgb(230, 230, 230)"></path><path data-z-index="1" class="highcharts-grid-line" d="M 10 83.5 L 590 83.5" opacity="1" fill="none" stroke="rgb(230, 230, 230)"></path></g><rect class="highcharts-plot-border" data-z-index="1" x="9.5px" y="83.5px" width="581" height="478" fill="none" style="block-size:478px;inline-size:581px;"></rect><g class="highcharts-axis highcharts-xaxis" data-z-index="2"><path class="highcharts-axis-line" d="M 10 561.5 L 590 561.5" fill="none" stroke="rgb(204, 214, 235)"></path><path class="highcharts-tick" d="M 88.5 561 L 88.5 571" opacity="1" stroke="rgb(204, 214, 235)"></path><path class="highcharts-tick" d="M 208.5 561 L 208.5 571" opacity="1" stroke="rgb(204, 214, 235)"></path><path class="highcharts-tick" d="M 281.5 561 L 281.5 571" opacity="1" stroke="rgb(204, 214, 235)"></path><path class="highcharts-tick" d="M 353.5 561 L 353.5 571" opacity="1" stroke="rgb(204, 214, 235)"></path><path class="highcharts-tick" d="M 426.5 561 L 426.5 571" opacity="1" stroke="rgb(204, 214, 235)"></path><path class="highcharts-tick" d="M 498.5 561 L 498.5 571" opacity="1" stroke="rgb(204, 214, 235)"></path><path class="highcharts-tick" d="M 571.5 561 L 571.5 571" opacity="1" stroke="rgb(204, 214, 235)"></path></g><g class="highcharts-axis highcharts-yaxis" data-z-index="2"><path class="highcharts-axis-line" d="M 10 84 L 10 561" fill="none" stroke="rgb(204, 214, 235)" stroke-width="0px"></path></g><g class="highcharts-series-group" data-z-index="3"><g data-z-index="0.1" class="highcharts-series highcharts-series-0 highcharts-candlestick-series highcharts-color-0" transform="translate(10,84) scale(1 1)" clip-path="url(#highcharts-spxrbpf-888-)" fill="rgb(139, 195, 74)" stroke="rgb(139, 195, 74)" style="transform:matrix(1, 0, 0, 1, 10, 84);webkit-clip-path:url(#highcharts-spxrbpf-888-);webkit-transform:matrix(1, 0, 0, 1, 10, 84);webkit-transition:opacity 0.25s ease 0s;webkit-transition-duration:0.25s;webkit-transition-property:opacity;"><path d="M 1.5 321.5 L 1.5 218.5 L 21.5 218.5 L 21.5 321.5 Z M 11.5 218.5 L 11.5 218.5 M 11.5 321.5 L 11.5 321.5" class="highcharts-point highcharts-color-0 highcharts-point-down" fill="rgb(239, 83, 80)" stroke="rgb(239, 83, 80)" stroke-width="0.5px"></path><path d="M 25.5 398.5 L 25.5 275.5 L 45.5 275.5 L 45.5 398.5 Z M 35.5 275.5 L 35.5 275.5 M 35.5 398.5 L 35.5 399" class="highcharts-point highcharts-color-0 highcharts-point-down" fill="rgb(239, 83, 80)" stroke="rgb(239, 83, 80)" stroke-width="0.5px"></path><path d="M 49.5 421.5 L 49.5 421.5 L 69.5 421.5 L 69.5 421.5 Z M 59.5 421.5 L 59.5 421.5 M 59.5 421.5 L 59.5 421.5" class="highcharts-point highcharts-color-0 highcharts-point-down" fill="rgb(239, 83, 80)" stroke="rgb(239, 83, 80)" stroke-width="0.5px"></path><path d="M 74.5 411.5 L 74.5 403.5 L 94.5 403.5 L 94.5 411.5 Z M 84.5 403.5 L 84.5 403.5 M 84.5 411.5 L 84.5 411.5" class="highcharts-point highcharts-color-0 highcharts-point-up" fill="rgb(141, 198, 71)" stroke="rgb(141, 198, 71)" stroke-width="0.5px"></path><path d="M 98.5 418.5 L 98.5 355.5 L 118.5 355.5 L 118.5 418.5 Z M 108.5 355.5 L 108.5 352 M 108.5 418.5 L 108.5 418.5" class="highcharts-point highcharts-color-0 highcharts-point-up" fill="rgb(141, 198, 71)" stroke="rgb(141, 198, 71)" stroke-width="0.5px"></path><path d="M 122.5 353.5 L 122.5 343.5 L 142.5 343.5 L 142.5 353.5 Z M 132.5 343.5 L 132.5 343.5 M 132.5 353.5 L 132.5 353.5" class="highcharts-point highcharts-color-0 highcharts-point-up" fill="rgb(141, 198, 71)" stroke="rgb(141, 198, 71)" stroke-width="0.5px"></path><path d="M 146.5 380.5 L 146.5 373.5 L 166.5 373.5 L 166.5 380.5 Z M 156.5 373.5 L 156.5 344 M 156.5 380.5 L 156.5 380.5" class="highcharts-point highcharts-color-0 highcharts-point-down" fill="rgb(239, 83, 80)" stroke="rgb(239, 83, 80)" stroke-width="0.5px"></path><path d="M 170.5 374.5 L 170.5 344.5 L 190.5 344.5 L 190.5 374.5 Z M 180.5 344.5 L 180.5 344.5 M 180.5 374.5 L 180.5 374.5" class="highcharts-point highcharts-color-0 highcharts-point-up" fill="rgb(141, 198, 71)" stroke="rgb(141, 198, 71)" stroke-width="0.5px"></path><path d="M 194.5 342.5 L 194.5 342.5 L 214.5 342.5 L 214.5 342.5 Z M 204.5 342.5 L 204.5 342.5 M 204.5 342.5 L 204.5 342.5" class="highcharts-point highcharts-color-0 highcharts-point-down" fill="rgb(239, 83, 80)" stroke="rgb(239, 83, 80)" stroke-width="0.5px"></path><path d="M 219.5 374.5 L 219.5 322.5 L 239.5 322.5 L 239.5 374.5 Z M 229.5 322.5 L 229.5 322.5 M 229.5 374.5 L 229.5 374.5" class="highcharts-point highcharts-color-0 highcharts-point-up" fill="rgb(141, 198, 71)" stroke="rgb(141, 198, 71)" stroke-width="0.5px"></path><path d="M 243.5 322.5 L 243.5 292.5 L 263.5 292.5 L 263.5 322.5 Z M 253.5 292.5 L 253.5 292.5 M 253.5 322.5 L 253.5 322.5" class="highcharts-point highcharts-color-0 highcharts-point-up" fill="rgb(141, 198, 71)" stroke="rgb(141, 198, 71)" stroke-width="0.5px"></path><path d="M 267.5 290.5 L 267.5 290.5 L 287.5 290.5 L 287.5 290.5 Z M 277.5 290.5 L 277.5 290.5 M 277.5 290.5 L 277.5 290.5" class="highcharts-point highcharts-color-0 highcharts-point-down" fill="rgb(239, 83, 80)" stroke="rgb(239, 83, 80)" stroke-width="0.5px"></path><path d="M 291.5 284.5 L 291.5 284.5 L 311.5 284.5 L 311.5 284.5 Z M 301.5 284.5 L 301.5 284.5 M 301.5 284.5 L 301.5 284.5" class="highcharts-point highcharts-color-0 highcharts-point-down" fill="rgb(239, 83, 80)" stroke="rgb(239, 83, 80)" stroke-width="0.5px"></path><path d="M 315.5 287.5 L 315.5 285.5 L 335.5 285.5 L 335.5 287.5 Z M 325.5 285.5 L 325.5 285.5 M 325.5 287.5 L 325.5 287.5" class="highcharts-point highcharts-color-0 highcharts-point-up" fill="rgb(141, 198, 71)" stroke="rgb(141, 198, 71)" stroke-width="0.5px"></path><path d="M 339.5 272.5 L 339.5 256.5 L 359.5 256.5 L 359.5 272.5 Z M 349.5 256.5 L 349.5 225 M 349.5 272.5 L 349.5 272.5" class="highcharts-point highcharts-color-0 highcharts-point-up" fill="rgb(141, 198, 71)" stroke="rgb(141, 198, 71)" stroke-width="0.5px"></path><path d="M 364.5 313.5 L 364.5 207.5 L 384.5 207.5 L 384.5 313.5 Z M 374.5 207.5 L 374.5 207.5 M 374.5 313.5 L 374.5 313.5" class="highcharts-point highcharts-color-0 highcharts-point-down" fill="rgb(239, 83, 80)" stroke="rgb(239, 83, 80)" stroke-width="0.5px"></path><path d="M 388.5 191.5 L 388.5 189.5 L 408.5 189.5 L 408.5 191.5 Z M 398.5 189.5 L 398.5 189.5 M 398.5 191.5 L 398.5 191.5" class="highcharts-point highcharts-color-0 highcharts-point-up" fill="rgb(141, 198, 71)" stroke="rgb(141, 198, 71)" stroke-width="0.5px"></path><path d="M 412.5 162.5 L 412.5 158.5 L 432.5 158.5 L 432.5 162.5 Z M 422.5 158.5 L 422.5 158.5 M 422.5 162.5 L 422.5 162.5" class="highcharts-point highcharts-color-0 highcharts-point-up" fill="rgb(141, 198, 71)" stroke="rgb(141, 198, 71)" stroke-width="0.5px"></path><path d="M 436.5 157.5 L 436.5 156.5 L 456.5 156.5 L 456.5 157.5 Z M 446.5 156.5 L 446.5 156.5 M 446.5 157.5 L 446.5 165" class="highcharts-point highcharts-color-0 highcharts-point-up" fill="rgb(141, 198, 71)" stroke="rgb(141, 198, 71)" stroke-width="0.5px"></path><path d="M 460.5 156.5 L 460.5 100.5 L 480.5 100.5 L 480.5 156.5 Z M 470.5 100.5 L 470.5 100.5 M 470.5 156.5 L 470.5 156.5" class="highcharts-point highcharts-color-0 highcharts-point-up" fill="rgb(141, 198, 71)" stroke="rgb(141, 198, 71)" stroke-width="0.5px"></path><path d="M 484.5 70.5 L 484.5 61.5 L 504.5 61.5 L 504.5 70.5 Z M 494.5 61.5 L 494.5 57 M 494.5 70.5 L 494.5 70.5" class="highcharts-point highcharts-color-0 highcharts-point-up" fill="rgb(141, 198, 71)" stroke="rgb(141, 198, 71)" stroke-width="0.5px"></path><path d="M 509.5 89.5 L 509.5 60.5 L 529.5 60.5 L 529.5 89.5 Z M 519.5 60.5 L 519.5 55 M 519.5 89.5 L 519.5 123" class="highcharts-point highcharts-color-0 highcharts-point-down" fill="rgb(239, 83, 80)" stroke="rgb(239, 83, 80)" stroke-width="0.5px"></path><path d="M 533.5 92.5 L 533.5 90.5 L 553.5 90.5 L 553.5 92.5 Z M 543.5 90.5 L 543.5 90.5 M 543.5 92.5 L 543.5 187" class="highcharts-point highcharts-color-0 highcharts-point-down" fill="rgb(239, 83, 80)" stroke="rgb(239, 83, 80)" stroke-width="0.5px"></path><path d="M 557.5 76.5 L 557.5 46.5 L 577.5 46.5 L 577.5 76.5 Z M 567.5 46.5 L 567.5 46.5 M 567.5 76.5 L 567.5 76.5" class="highcharts-point highcharts-color-0 highcharts-point-up" fill="rgb(141, 198, 71)" stroke="rgb(141, 198, 71)" stroke-width="0.5px"></path></g><g data-z-index="0.1" class="highcharts-markers highcharts-series-0 highcharts-candlestick-series highcharts-color-0" transform="translate(10,84) scale(1 1)" clip-path="none" fill="rgb(139, 195, 74)" stroke="rgb(255, 255, 255)" style="transform:matrix(1, 0, 0, 1, 10, 84);webkit-transform:matrix(1, 0, 0, 1, 10, 84);webkit-transition:opacity 0.25s ease 0s;webkit-transition-duration:0.25s;webkit-transition-property:opacity;"></g></g><text x="300" text-anchor="middle" class="highcharts-title" data-z-index="4" y="25" fill="rgb(51, 51, 51)" stroke-width="0px" style="font-size:19.5px;"></text><text x="10" text-anchor="start" class="highcharts-subtitle" data-z-index="4" y="45" fill="rgb(102, 102, 102)" stroke-width="0px" style="webkit-perspective-origin:54.7812px 0px;"><tspan class="text-secondary">Epic Cash Chart</tspan></text><text x="10" text-anchor="start" class="highcharts-caption" data-z-index="4" y="598" stroke-width="0px"></text><g class="highcharts-axis-labels highcharts-xaxis-labels" data-z-index="7" fill="rgb(102, 102, 102)" style="cursor:default;font-size:11.7px;"><text x="88.541666666564" text-anchor="middle" transform="translate(0,0)" y="580" opacity="1" stroke-width="0px" style="transform:matrix(1, 0, 0, 1, 0, 0);webkit-perspective-origin:89px 0px;webkit-transform:matrix(1, 0, 0, 1, 0, 0);"><tspan>30. Apr</tspan></text><text x="209.37500000007" text-anchor="middle" transform="translate(0,0)" y="580" opacity="1" stroke-width="0px" style="transform:matrix(1, 0, 0, 1, 0, 0);webkit-perspective-origin:210.047px 0px;webkit-transform:matrix(1, 0, 0, 1, 0, 0);"><tspan>1. May</tspan></text><text x="281.87500000017" text-anchor="middle" transform="translate(0,0)" y="580" opacity="1" stroke-width="0px" style="transform:matrix(1, 0, 0, 1, 0, 0);webkit-perspective-origin:282.219px 0px;webkit-transform:matrix(1, 0, 0, 1, 0, 0);">12:00</text><text x="354.37499999988" text-anchor="middle" transform="translate(0,0)" y="580" opacity="1" stroke-width="0px" style="transform:matrix(1, 0, 0, 1, 0, 0);webkit-perspective-origin:355.047px 0px;webkit-transform:matrix(1, 0, 0, 1, 0, 0);"><tspan>2. May</tspan></text><text x="426.87499999998" text-anchor="middle" transform="translate(0,0)" y="580" opacity="1" stroke-width="0px" style="transform:matrix(1, 0, 0, 1, 0, 0);webkit-perspective-origin:427.219px 0px;webkit-transform:matrix(1, 0, 0, 1, 0, 0);">12:00</text><text x="499.37500000009" text-anchor="middle" transform="translate(0,0)" y="580" opacity="1" stroke-width="0px" style="transform:matrix(1, 0, 0, 1, 0, 0);webkit-perspective-origin:500.047px 0px;webkit-transform:matrix(1, 0, 0, 1, 0, 0);"><tspan>3. May</tspan></text><text x="571.87500000019" text-anchor="middle" transform="translate(0,0)" y="580" opacity="1" stroke-width="0px" style="transform:matrix(1, 0, 0, 1, 0, 0);webkit-perspective-origin:572.219px 0px;webkit-transform:matrix(1, 0, 0, 1, 0, 0);">12:00</text></g><g class="highcharts-axis-labels highcharts-yaxis-labels" data-z-index="7" fill="rgb(102, 102, 102)" style="cursor:default;font-size:11.7px;"><text x="10" text-anchor="start" transform="translate(0,0)" y="559" opacity="1" fill="rgb(124, 181, 236)" stroke-width="0px" style="transform:matrix(1, 0, 0, 1, 0, 0);webkit-perspective-origin:24.2344px 0px;webkit-transform:matrix(1, 0, 0, 1, 0, 0);">$0.00</text><text x="10" text-anchor="start" transform="translate(0,0)" y="511" opacity="1" fill="rgb(124, 181, 236)" stroke-width="0px" style="transform:matrix(1, 0, 0, 1, 0, 0);webkit-perspective-origin:36.8438px 0px;webkit-transform:matrix(1, 0, 0, 1, 0, 0);">$0.100000</text><text x="10" text-anchor="start" transform="translate(0,0)" y="464" opacity="1" fill="rgb(124, 181, 236)" stroke-width="0px" style="transform:matrix(1, 0, 0, 1, 0, 0);webkit-perspective-origin:36.8438px 0px;webkit-transform:matrix(1, 0, 0, 1, 0, 0);">$0.200000</text><text x="10" text-anchor="start" transform="translate(0,0)" y="416" opacity="1" fill="rgb(124, 181, 236)" stroke-width="0px" style="transform:matrix(1, 0, 0, 1, 0, 0);webkit-perspective-origin:36.8438px 0px;webkit-transform:matrix(1, 0, 0, 1, 0, 0);">$0.300000</text><text x="10" text-anchor="start" transform="translate(0,0)" y="368" opacity="1" fill="rgb(124, 181, 236)" stroke-width="0px" style="transform:matrix(1, 0, 0, 1, 0, 0);webkit-perspective-origin:36.8438px 0px;webkit-transform:matrix(1, 0, 0, 1, 0, 0);">$0.400000</text><text x="10" text-anchor="start" transform="translate(0,0)" y="321" opacity="1" fill="rgb(124, 181, 236)" stroke-width="0px" style="transform:matrix(1, 0, 0, 1, 0, 0);webkit-perspective-origin:36.8438px 0px;webkit-transform:matrix(1, 0, 0, 1, 0, 0);">$0.500000</text><text x="10" text-anchor="start" transform="translate(0,0)" y="273" opacity="1" fill="rgb(124, 181, 236)" stroke-width="0px" style="transform:matrix(1, 0, 0, 1, 0, 0);webkit-perspective-origin:36.8438px 0px;webkit-transform:matrix(1, 0, 0, 1, 0, 0);">$0.600000</text><text x="10" text-anchor="start" transform="translate(0,0)" y="225" opacity="1" fill="rgb(124, 181, 236)" stroke-width="0px" style="transform:matrix(1, 0, 0, 1, 0, 0);webkit-perspective-origin:36.8438px 0px;webkit-transform:matrix(1, 0, 0, 1, 0, 0);">$0.700000</text><text x="10" text-anchor="start" transform="translate(0,0)" y="177" opacity="1" fill="rgb(124, 181, 236)" stroke-width="0px" style="transform:matrix(1, 0, 0, 1, 0, 0);webkit-perspective-origin:36.8438px 0px;webkit-transform:matrix(1, 0, 0, 1, 0, 0);">$0.800000</text><text x="10" text-anchor="start" transform="translate(0,0)" y="130" opacity="1" fill="rgb(124, 181, 236)" stroke-width="0px" style="transform:matrix(1, 0, 0, 1, 0, 0);webkit-perspective-origin:36.8438px 0px;webkit-transform:matrix(1, 0, 0, 1, 0, 0);">$0.900000</text><text x="10" text-anchor="start" transform="translate(0,0)" y="82" opacity="1" fill="rgb(124, 181, 236)" stroke-width="0px" style="transform:matrix(1, 0, 0, 1, 0, 0);webkit-perspective-origin:24.2344px 0px;webkit-transform:matrix(1, 0, 0, 1, 0, 0);">$1.00</text></g><g class="highcharts-range-selector-group" data-z-index="7" transform="translate(0,40)" style="transform:matrix(1, 0, 0, 1, 0, 40);webkit-transform:matrix(1, 0, 0, 1, 0, 40);"><g class="highcharts-range-selector-buttons" transform="translate(0,10)" style="transform:matrix(1, 0, 0, 1, 0, 10);webkit-transform:matrix(1, 0, 0, 1, 0, 10);"><text x="10" y="15" stroke-width="0px"></text></g><g class="highcharts-input-group" transform="translate(328,-10)" style="transform:matrix(1, 0, 0, 1, 328, -10);webkit-transform:matrix(1, 0, 0, 1, 328, -10);"><g class="highcharts-label highcharts-range-label" transform="translate(0,0)" style="transform:matrix(1, 0, 0, 1, 0, 0);webkit-transform:matrix(1, 0, 0, 1, 0, 0);"><rect class="highcharts-label-box" x="0.5px" y="0.5px" width="34" height="21" fill="none" style="block-size:21px;inline-size:34px;"></rect><text x="2" data-z-index="1" y="15" fill="rgb(153, 153, 153)" stroke-width="0px" style="webkit-perspective-origin:16.8438px 0px;">From</text></g><g class="highcharts-label highcharts-range-input" transform="translate(39,0)" stroke="rgb(204, 204, 204)" style="transform:matrix(1, 0, 0, 1, 39, 0);webkit-transform:matrix(1, 0, 0, 1, 39, 0);"><rect class="highcharts-label-box" x="0.5px" y="0.5px" width="94" height="21" fill="none" style="block-size:21px;inline-size:94px;"></rect><text x="10.2265625" data-z-index="1" y="15" fill="rgb(153, 153, 153)" stroke-width="0px" style="webkit-perspective-origin:45.9844px 0px;"><tspan>Apr 29, 2021</tspan></text></g><g class="highcharts-label highcharts-range-label" transform="translate(143,0)" style="transform:matrix(1, 0, 0, 1, 143, 0);webkit-transform:matrix(1, 0, 0, 1, 143, 0);"><rect class="highcharts-label-box" x="0.5px" y="0.5px" width="19" height="21" fill="none" style="block-size:21px;inline-size:19px;"></rect><text x="2" data-z-index="1" y="15" fill="rgb(153, 153, 153)" stroke-width="0px" style="webkit-perspective-origin:8.26562px 0px;">To</text></g><g class="highcharts-label highcharts-range-input" transform="translate(166,0)" stroke="rgb(204, 204, 204)" style="transform:matrix(1, 0, 0, 1, 166, 0);webkit-transform:matrix(1, 0, 0, 1, 166, 0);"><rect class="highcharts-label-box" x="0.5px" y="0.5px" width="94" height="21" fill="none" style="block-size:21px;inline-size:94px;"></rect><text x="12.21875" data-z-index="1" y="15" fill="rgb(153, 153, 153)" stroke-width="0px" style="webkit-perspective-origin:47px 0px;"><tspan>May  3, 2021</tspan></text></g></g></g></svg>