<?xml version="1.0" encoding="utf-8"?>
<!-- Generator: Adobe Illustrator 16.0.0, SVG Export Plug-In . SVG Version: 6.00 Build 0)  -->
<!DOCTYPE svg PUBLIC "-//W3C//DTD SVG 1.1//EN" "http://www.w3.org/Graphics/SVG/1.1/DTD/svg11.dtd">
<svg version="1.1" id="Layer_1" xmlns="http://www.w3.org/2000/svg" xmlns:xlink="http://www.w3.org/1999/xlink" x="0px" y="0px"
	 width="1456.669px" height="426.667px" viewBox="0 0 1456.669 426.667" enable-background="new 0 0 1456.669 426.667"
	 xml:space="preserve">
<g>
	<path fill="#F3F4F2" d="M333.968,95.021c3.714-2.159,3.709-7.524-0.011-9.67l-36.694-21.18c-1.729-0.997-3.858-0.997-5.587,0
		l-25.192,14.525l47.954,27.675L333.968,95.021z"/>
	<path fill="#F3F4F2" d="M109.568,172.411l-0.016,43.313c0,4.31,4.673,7,8.401,4.832L306.04,111.25l-47.985-27.691l-145.688,84.016
		C110.638,168.573,109.568,170.412,109.568,172.411"/>
	<path fill="#F3F4F2" d="M145.717,278.448l38.37,22.09c1.73,0.996,3.859,0.993,5.585-0.002l144.187-83.197v-57.914l-188.16,109.35
		C141.981,270.935,141.994,276.306,145.717,278.448"/>
	<path fill="#F3F4F2" d="M367.283,198.049c1.731-0.997,2.796-2.842,2.796-4.837v-45.125c0-4.309-4.673-6.993-8.402-4.829
		l-19.396,11.27v57.95L367.283,198.049z"/>
	<polygon fill="#BE9A30" points="184.804,426.633 184.872,426.667 238.099,395.919 238.052,395.896 369.611,319.949 
		369.611,258.472 342.281,274.249 333.856,279.114 232.709,337.505 184.82,365.163 53.256,289.217 53.256,137.418 202.298,51.381 
		210.722,46.519 238.052,30.743 184.804,0 0,106.686 0,319.949 	"/>
	<polygon fill="#BE9A30" points="553.261,207.183 553.261,234.649 452.321,234.649 452.321,108.979 550.923,108.979 
		550.923,136.449 487.523,136.449 487.523,157.632 543.382,157.632 543.382,184.204 487.523,184.204 487.523,207.183 	"/>
	<path fill="#BE9A30" d="M660.125,114.635c8.379,3.77,14.844,9.155,19.395,16.158c4.552,7.003,6.826,15.231,6.826,24.685
		c0,9.458-2.274,17.657-6.826,24.596c-4.551,6.942-11.016,12.296-19.395,16.069c-8.384,3.77-18.262,5.652-29.637,5.652h-21.913
		v32.854h-35.56V108.981h57.473C641.863,108.981,651.741,110.866,660.125,114.635 M644.856,169.032
		c3.711-3.167,5.566-7.689,5.566-13.555c0-5.863-1.855-10.413-5.566-13.643c-3.713-3.232-9.221-4.847-16.523-4.847h-19.758v36.803
		h19.758C635.636,173.791,641.144,172.202,644.856,169.032"/>
	<rect x="703.591" y="108.979" fill="#BE9A30" width="35.56" height="125.67"/>
	<path fill="#BE9A30" d="M791.683,228.816c-10.477-5.566-18.707-13.315-24.693-23.249c-5.988-9.935-8.982-21.187-8.982-33.753
		s2.994-23.816,8.982-33.751c5.986-9.93,14.217-17.684,24.693-23.249c10.477-5.563,22.302-8.349,35.474-8.349
		c11.496,0,21.851,2.04,31.073,6.107c9.217,4.068,16.88,9.934,22.988,17.59l-22.632,20.467c-8.144-9.811-18.02-14.719-29.633-14.719
		c-6.826,0-12.905,1.497-18.23,4.486c-5.327,2.991-9.462,7.21-12.395,12.658c-2.935,5.445-4.399,11.702-4.399,18.759
		c0,7.062,1.465,13.316,4.399,18.761c2.933,5.445,7.067,9.667,12.395,12.657c5.325,2.991,11.404,4.488,18.23,4.488
		c11.613,0,21.489-4.906,29.633-14.722l22.632,20.467c-6.108,7.662-13.771,13.526-22.988,17.59
		c-9.223,4.071-19.577,6.107-31.073,6.107C813.984,237.163,802.159,234.378,791.683,228.816"/>
	<path fill="#BE9A30" d="M976.496,228.816c-10.479-5.566-18.711-13.315-24.696-23.249c-5.987-9.935-8.98-21.187-8.98-33.753
		s2.993-23.816,8.98-33.751c5.985-9.93,14.218-17.684,24.696-23.249c10.475-5.563,22.298-8.349,35.474-8.349
		c11.492,0,21.849,2.04,31.07,6.107c9.218,4.068,16.88,9.934,22.992,17.59l-22.636,20.467c-8.143-9.811-18.018-14.719-29.634-14.719
		c-6.822,0-12.901,1.497-18.23,4.486c-5.327,2.991-9.458,7.21-12.391,12.658c-2.937,5.445-4.403,11.702-4.403,18.759
		c0,7.062,1.467,13.316,4.403,18.761c2.933,5.445,7.063,9.667,12.391,12.657c5.329,2.991,11.408,4.488,18.23,4.488
		c11.616,0,21.491-4.906,29.634-14.722l22.636,20.467c-6.112,7.662-13.774,13.526-22.992,17.59
		c-9.222,4.071-19.578,6.107-31.07,6.107C998.794,237.163,986.971,234.378,976.496,228.816"/>
	<path fill="#BE9A30" d="M1163.914,210.232h-53.162l-9.88,24.419h-36.279l55.497-125.67h35.024l55.677,125.67h-37.001
		L1163.914,210.232z M1153.498,184.024l-16.164-40.216l-16.165,40.216H1153.498z"/>
	<path fill="#BE9A30" d="M1235.396,233.394c-9.58-2.514-17.36-5.863-23.348-10.056l11.674-26.208
		c5.629,3.709,12.154,6.703,19.574,8.973c7.425,2.278,14.73,3.416,21.915,3.416c13.651,0,20.474-3.416,20.474-10.234
		c0-3.594-1.948-6.252-5.835-7.988c-3.892-1.734-10.147-3.562-18.769-5.476c-9.462-2.036-17.367-4.223-23.708-6.555
		c-6.351-2.334-11.794-6.072-16.347-11.22c-4.552-5.146-6.824-12.087-6.824-20.827c0-7.656,2.097-14.568,6.286-20.733
		c4.19-6.163,10.442-11.044,18.77-14.633c8.323-3.589,18.526-5.387,30.624-5.387c8.262,0,16.402,0.933,24.425,2.787
		c8.022,1.854,15.089,4.577,21.196,8.165l-10.957,26.393c-11.974-6.464-23.593-9.696-34.844-9.696
		c-7.066,0-12.215,1.051-15.446,3.143c-3.232,2.093-4.849,4.82-4.849,8.168c0,3.352,1.911,5.866,5.746,7.542
		c3.831,1.676,9.997,3.408,18.499,5.206c9.58,2.035,17.511,4.217,23.798,6.552c6.286,2.335,11.733,6.044,16.345,11.132
		c4.608,5.088,6.913,12,6.913,20.736c0,7.541-2.096,14.36-6.288,20.465c-4.189,6.103-10.479,10.985-18.854,14.631
		c-8.383,3.649-18.56,5.476-30.532,5.476C1254.854,237.163,1244.974,235.904,1235.396,233.394"/>
	<polygon fill="#BE9A30" points="1456.669,108.979 1456.669,234.649 1421.107,234.649 1421.107,185.638 1372.612,185.638 
		1372.612,234.649 1337.05,234.649 1337.05,108.979 1372.612,108.979 1372.612,156.196 1421.107,156.196 1421.107,108.979 	"/>
	<polygon fill="#F3F4F2" points="484.43,316.809 484.43,319.865 452.319,319.865 452.319,273.351 483.432,273.351 483.432,276.407 
		455.711,276.407 455.711,294.744 480.507,294.744 480.507,297.735 455.711,297.735 455.711,316.809 	"/>
	<path fill="#F3F4F2" d="M527.242,277.503c3.325,2.771,4.985,6.614,4.985,11.531c0,4.87-1.66,8.691-4.985,11.462
		c-3.325,2.767-7.913,4.15-13.762,4.15h-13.297v15.219h-3.391v-46.515h16.688C519.329,273.351,523.917,274.732,527.242,277.503
		 M524.848,298.338c2.615-2.17,3.923-5.274,3.923-9.304c0-4.031-1.308-7.144-3.923-9.336c-2.617-2.195-6.406-3.291-11.367-3.291
		h-13.297v25.188h13.297C518.441,301.595,522.23,300.505,524.848,298.338"/>
	<rect x="543.661" y="273.351" fill="#F3F4F2" width="3.389" height="46.515"/>
	<path fill="#F3F4F2" d="M570.619,317.142c-3.658-2.038-6.538-4.854-8.644-8.439c-2.106-3.588-3.158-7.622-3.158-12.098
		c0-4.475,1.052-8.498,3.158-12.092c2.105-3.587,4.985-6.399,8.644-8.438c3.655-2.039,7.766-3.06,12.331-3.06
		c3.367,0,6.47,0.55,9.307,1.626c2.834,1.092,5.251,2.693,7.247,4.822l-2.13,2.192c-3.724-3.677-8.486-5.513-14.293-5.513
		c-3.898,0-7.443,0.881-10.635,2.656c-3.19,1.772-5.694,4.219-7.512,7.341c-1.816,3.124-2.727,6.614-2.727,10.464
		c0,3.857,0.91,7.347,2.727,10.472c1.817,3.12,4.321,5.566,7.512,7.339c3.191,1.774,6.736,2.661,10.635,2.661
		c5.763,0,10.525-1.863,14.293-5.586l2.13,2.197c-1.996,2.126-4.422,3.741-7.279,4.85c-2.859,1.108-5.951,1.66-9.274,1.66
		C578.385,320.197,574.274,319.178,570.619,317.142"/>
	<path fill="#F3F4F2" d="M658.403,277.503c3.325,2.771,4.985,6.614,4.985,11.531c0,4.87-1.66,8.691-4.985,11.462
		c-3.327,2.767-7.914,4.15-13.762,4.15h-13.297v15.219h-3.392v-46.515h16.688C650.489,273.351,655.076,274.732,658.403,277.503
		 M656.009,298.338c2.613-2.17,3.921-5.274,3.921-9.304c0-4.031-1.308-7.144-3.921-9.336c-2.617-2.195-6.406-3.291-11.367-3.291
		h-13.297v25.188h13.297C649.603,301.595,653.392,300.505,656.009,298.338"/>
	<path fill="#F3F4F2" d="M707.132,319.865l-11.102-15.551c-1.644,0.224-3.149,0.332-4.521,0.332h-13.296v15.219h-3.393v-46.515
		h16.688c5.849,0,10.437,1.382,13.762,4.152c3.323,2.771,4.983,6.614,4.983,11.531c0,3.674-0.939,6.765-2.822,9.265
		c-1.886,2.508-4.58,4.267-8.078,5.286l11.632,16.28H707.132z M691.509,301.657c4.96,0,8.755-1.093,11.367-3.287
		c2.615-2.191,3.923-5.307,3.923-9.336c0-4.031-1.308-7.144-3.923-9.336c-2.612-2.195-6.407-3.291-11.367-3.291h-13.296v25.25
		H691.509z"/>
	<rect x="722.686" y="273.351" fill="#F3F4F2" width="3.389" height="46.515"/>
	<polygon fill="#F3F4F2" points="778.86,273.351 758.118,319.865 754.728,319.865 733.989,273.351 737.71,273.351 756.524,315.479 
		775.339,273.351 	"/>
	<path fill="#F3F4F2" d="M813.761,306.775h-26.988l-5.918,13.09h-3.656l21.405-46.515h3.394l21.404,46.515h-3.655L813.761,306.775z
		 M812.5,303.917l-12.235-26.844l-12.162,26.844H812.5z"/>
	<polygon fill="#F3F4F2" points="838.425,276.407 821.673,276.407 821.673,273.351 858.567,273.351 858.567,276.407 
		841.816,276.407 841.816,319.865 838.425,319.865 	"/>
	<polygon fill="#F3F4F2" points="899.053,316.809 899.053,319.865 866.945,319.865 866.945,273.351 898.057,273.351 
		898.057,276.407 870.335,276.407 870.335,294.744 895.132,294.744 895.132,297.735 870.335,297.735 870.335,316.809 	"/>
	<rect x="928.503" y="273.351" fill="#F3F4F2" width="3.392" height="46.515"/>
	<polygon fill="#F3F4F2" points="986.004,273.351 986.004,319.865 983.216,319.865 951.504,279.466 951.504,319.865 
		948.112,319.865 948.112,273.351 950.97,273.351 982.614,313.753 982.614,273.351 	"/>
	<polygon fill="#F3F4F2" points="1011.136,276.407 994.382,276.407 994.382,273.351 1031.277,273.351 1031.277,276.407 
		1014.521,276.407 1014.521,319.865 1011.136,319.865 	"/>
	<polygon fill="#F3F4F2" points="1071.761,316.809 1071.761,319.865 1039.653,319.865 1039.653,273.351 1070.765,273.351 
		1070.765,276.407 1043.045,276.407 1043.045,294.744 1067.84,294.744 1067.84,297.735 1043.045,297.735 1043.045,316.809 	"/>
	<path fill="#F3F4F2" d="M1116.435,319.865l-11.101-15.551c-1.641,0.224-3.146,0.332-4.521,0.332h-13.296v15.219h-3.391v-46.515
		h16.687c5.85,0,10.437,1.382,13.763,4.152c3.322,2.771,4.985,6.614,4.985,11.531c0,3.674-0.944,6.765-2.825,9.265
		c-1.885,2.508-4.58,4.267-8.08,5.286l11.637,16.28H1116.435z M1100.813,301.657c4.961,0,8.753-1.093,11.367-3.287
		c2.615-2.191,3.926-5.307,3.926-9.336c0-4.031-1.311-7.144-3.926-9.336c-2.614-2.195-6.406-3.291-11.367-3.291h-13.296v25.25
		H1100.813z"/>
	<polygon fill="#F3F4F2" points="1169.883,273.351 1169.883,319.865 1167.09,319.865 1135.381,279.466 1135.381,319.865 
		1131.991,319.865 1131.991,273.351 1134.849,273.351 1166.491,313.753 1166.491,273.351 	"/>
	<polygon fill="#F3F4F2" points="1218.211,316.809 1218.211,319.865 1186.104,319.865 1186.104,273.351 1217.215,273.351 
		1217.215,276.407 1189.495,276.407 1189.495,294.744 1214.29,294.744 1214.29,297.735 1189.495,297.735 1189.495,316.809 	"/>
	<polygon fill="#F3F4F2" points="1239.482,276.407 1222.731,276.407 1222.731,273.351 1259.626,273.351 1259.626,276.407 
		1242.876,276.407 1242.876,319.865 1239.482,319.865 	"/>
	<path fill="#F3F4F2" d="M1292.436,317.142c-3.66-2.038-6.538-4.854-8.646-8.439c-2.104-3.588-3.156-7.622-3.156-12.098
		c0-4.475,1.052-8.498,3.156-12.092c2.107-3.587,4.985-6.399,8.646-8.438c3.654-2.039,7.769-3.06,12.334-3.06
		c3.365,0,6.465,0.55,9.304,1.626c2.835,1.092,5.253,2.693,7.249,4.822l-2.129,2.192c-3.726-3.677-8.489-5.513-14.292-5.513
		c-3.9,0-7.446,0.881-10.639,2.656c-3.189,1.772-5.694,4.219-7.514,7.341c-1.816,3.124-2.727,6.614-2.727,10.464
		c0,3.857,0.91,7.347,2.727,10.472c1.819,3.12,4.324,5.566,7.514,7.339c3.192,1.774,6.738,2.661,10.639,2.661
		c5.758,0,10.523-1.863,14.292-5.586l2.129,2.197c-1.996,2.126-4.423,3.741-7.283,4.85c-2.858,1.108-5.948,1.66-9.27,1.66
		C1300.204,320.197,1296.09,319.178,1292.436,317.142"/>
	<path fill="#F3F4F2" d="M1360.209,306.775h-26.99l-5.915,13.09h-3.656l21.402-46.515h3.393l21.406,46.515h-3.656L1360.209,306.775z
		 M1358.945,303.917l-12.235-26.844l-12.159,26.844H1358.945z"/>
	<path fill="#F3F4F2" d="M1380.781,318.438c-3.08-1.176-5.484-2.695-7.213-4.554l1.529-2.524c1.64,1.727,3.847,3.133,6.616,4.219
		c2.768,1.083,5.679,1.63,8.741,1.63c4.433,0,7.776-0.844,10.038-2.528c2.261-1.68,3.39-3.873,3.39-6.578
		c0-2.081-0.598-3.741-1.794-4.98c-1.199-1.244-2.684-2.196-4.453-2.857c-1.771-0.667-4.165-1.353-7.181-2.061
		c-3.415-0.843-6.148-1.664-8.21-2.461c-2.059-0.796-3.812-2.025-5.249-3.689c-1.444-1.66-2.163-3.884-2.163-6.675
		c0-2.258,0.598-4.328,1.792-6.216c1.201-1.882,3.028-3.371,5.485-4.484c2.461-1.106,5.53-1.663,9.207-1.663
		c2.57,0,5.098,0.376,7.579,1.133c2.481,0.752,4.63,1.771,6.45,3.057l-1.265,2.723c-1.861-1.282-3.91-2.259-6.146-2.925
		c-2.241-0.662-4.444-0.991-6.618-0.991c-4.297,0-7.557,0.859-9.77,2.588c-2.217,1.729-3.324,3.962-3.324,6.71
		c0,2.084,0.6,3.744,1.795,4.984c1.198,1.242,2.683,2.194,4.45,2.857c1.775,0.665,4.192,1.373,7.249,2.128
		c3.414,0.842,6.139,1.661,8.179,2.456c2.033,0.801,3.779,2.002,5.216,3.623c1.439,1.618,2.162,3.799,2.162,6.548
		c0,2.257-0.61,4.317-1.829,6.177c-1.218,1.862-3.092,3.346-5.616,4.454c-2.525,1.108-5.629,1.66-9.308,1.66
		C1387.105,320.197,1383.863,319.61,1380.781,318.438"/>
	<polygon fill="#F3F4F2" points="1456.669,273.351 1456.669,319.865 1453.275,319.865 1453.275,297.735 1422.162,297.735 
		1422.162,319.865 1418.774,319.865 1418.774,273.351 1422.162,273.351 1422.162,294.744 1453.275,294.744 1453.275,273.351 	"/>
</g>
<g>
</g>
<g>
</g>
<g>
</g>
<g>
</g>
<g>
</g>
<g>
</g>
</svg>
